# xmcd
#
# Track frame offsets: 
#        150
#        16360
#        36425
#        48970
#        68635
#        84205
#        96867
#        106080
#        122495
#        141305
#        168470
#        179147
#        196542
#        213742
#        230432
#        252400
#
# Disc length: 3621 seconds
#
# Revision: 4
# Processed by: cddbd v1.5.2PL0 Copyright (c) Steve Scherf et al.
# Submitted via: ExactAudioCopyFreeDBPlugin 1.0
#
DISCID=da0e2310
DTITLE=Country Rock Classics - Country Rock Classics Vol,1
DYEAR=1994
DGENRE=Country Rock
TTITLE0=Charlie Daniels Band - The Devil Went Down To Georgia
TTITLE1=J.D.Souther - Trouble In Paradise
TTITLE2=New Riders Of The Purple Saga - Panama Red
TTITLE3=Roger McGuinn - Lost My Drivin' Feeling
TTITLE4=Charlie Daniels Band - Boogie Woogie Fiddle Country Blues
TTITLE5=Loggins and Messina - Your Mama Don't Dance
TTITLE6=The Byrds - All I Really Want To Do
TTITLE7=Exile - Hang On To Your Heart
TTITLE8=Rodney Crowell - Oh King Richard
TTITLE9=Michael Murphy - Cosmic Cowboy-Cosmic Breakdown
TTITLE10=Steve Earle - Continental Railway Blues
TTITLE11=Poco - A Good Feeling To Know
TTITLE12=Don King - Over My Head
TTITLE13=Dan Fogelberg - The Language Of Love
TTITLE14=Alien - Atlanta Rhythm Section
TTITLE15=Flying Burrito Brothers - Building Fires
EXTD=
EXTT0=
EXTT1=
EXTT2=
EXTT3=
EXTT4=
EXTT5=
EXTT6=
EXTT7=
EXTT8=
EXTT9=
EXTT10=
EXTT11=
EXTT12=
EXTT13=
EXTT14=
EXTT15=
PLAYORDER=
